<?xml version="1.0" encoding="utf-8"?>
<!-- Generator: Adobe Illustrator 21.1.0, SVG Export Plug-In . SVG Version: 6.00 Build 0)  -->
<svg version="1.1" id="Capa_1" xmlns="http://www.w3.org/2000/svg" xmlns:xlink="http://www.w3.org/1999/xlink" x="0px" y="0px"
	 viewBox="0 0 512 512" style="enable-background:new 0 0 512 512;" xml:space="preserve">
<style type="text/css">
	.st0{fill:#AFC0CC;}
</style>
<g>
	<g>
		<g>
			<polygon class="st0" points="177.1,305.1 42.7,439.5 42.7,341.3 0,341.3 0,512 170.7,512 170.7,469.3 74.7,469.3 209.1,334.9 			
				"/>
			<polygon class="st0" points="469.3,439.5 72.5,42.7 170.7,42.7 170.7,0 0,0 0,170.7 42.7,170.7 42.7,72.5 439.5,469.3 
				341.3,469.3 341.3,512 512,512 512,341.3 469.3,341.3 			"/>
			<polygon class="st0" points="341.3,0 341.3,42.7 441.6,42.7 307.2,177.1 337.1,206.9 469.3,74.7 469.3,170.7 512,170.7 512,0 			
				"/>
		</g>
	</g>
</g>
</svg>
