<?xml version="1.0" encoding="utf-8"?>
<!-- Generator: Adobe Illustrator 21.1.0, SVG Export Plug-In . SVG Version: 6.00 Build 0)  -->
<svg version="1.1" id="Capa_1" xmlns="http://www.w3.org/2000/svg" xmlns:xlink="http://www.w3.org/1999/xlink" x="0px" y="0px"
	 viewBox="0 0 512 512" style="enable-background:new 0 0 512 512;" xml:space="preserve">
<style type="text/css">
	.st0{fill:#AFC0CC;}
</style>
<g>
	<g>
		<path class="st0" d="M458.1,0H53.9C24.1,0,0,24.3,0,53.9v404.1C0,487.9,24.3,512,53.9,512h404.1c29.8,0,53.9-24.3,53.9-53.9V53.9
			C512,24.3,487.7,0,458.1,0z M486.4,458.1c0,15.6-12.8,28.3-28.3,28.3H53.9c-15.6,0-28.3-12.8-28.3-28.3V53.9
			c0-15.6,12.8-28.3,28.3-28.3h404.1c15.6,0,28.3,12.8,28.3,28.3L486.4,458.1L486.4,458.1z"/>
	</g>
</g>
</svg>
